<svg id="Layer_1" data-name="Layer 1" xmlns="http://www.w3.org/2000/svg" viewBox="0 0 202 206"><title>BriefI</title><path d="M99.79,18c18.6,0,37.21-.18,55.81.06,14,.19,24.18,6.88,29.57,19.85a36.41,36.41,0,0,1,2.63,13.46q.31,54,.06,107.94c-.08,17-9.76,27.39-21,31.16A44.4,44.4,0,0,1,153.34,193q-53.61.3-107.22,0c-11.55-.07-21.37-4.35-28-14.43a31.49,31.49,0,0,1-5.32-17.87q.06-41.85,0-83.71c0-9.3.23-18.61,0-27.91C12.28,32.83,27.68,17.27,44,18c.24,0,.49,0,.73,0ZM50.11,66C51.92,69,54,70,57.35,68.2c2.76-1.46,5.9-2.22,8.88-3.25a13.32,13.32,0,0,1,2-.38,9.07,9.07,0,0,1-.44,2.59c-9.42,19.84-16,40.71-22.55,61.6-1.64,5.25-.81,6.79,4.06,9.13,2.16,1,3,.42,3.53-1.8.72-3.07,1.81-6.05,2.66-9.09,2-7,4-14,5.81-21.06.55-2.14,1.43-3.7,3.73-3.79,9.77-.39,19.53-.37,28.72,3.64,4.94,2.16,8.21,6.87,7.23,11.44a24.13,24.13,0,0,1-4.3,9.1c-5,6.75-12.56,10.06-20.26,12.38a71.19,71.19,0,0,1-31.81,2.5c-2-.31-2,.5-2.07,1.8a5.63,5.63,0,0,0,3.72,5.78c3.11,1.24,6.56,2.81,9.73,2.56,9.43-.76,18.94-2,27.6-6.12,7.93-3.74,15.79-7.85,20.46-15.93,6-10.44,3.64-21.48-8.47-26.35-2.9-1.17-6.07-1.66-9.08-2.58-.48-.15-.88-.93-1.06-1.49-.07-.23.46-.83.84-1,4-1.81,8-3.55,11.92-5.35,5.51-2.49,7.56-7.45,8.55-12.84,1.29-7-3.39-14.9-9.82-17A60.24,60.24,0,0,0,50.11,66Zm83.28,78.52c.59-.12,1.79-.3,3-.61,9.65-2.55,16-9,20.38-17.59.37-.73,0-1.82,0-2.74a12,12,0,0,0-2.63,1.56c-.84.85-1.23,2.17-2.1,3-3.57,3.29-7.17,6.57-10.93,9.65a5.48,5.48,0,0,1-6.8.45c-2.06-1.51-1.12-4.06-.46-6.12s1.75-4,2.53-6c4.06-10.69,1.29-14.57-5-19-1-.71-2.11-1.24-3.05-2-1.37-1.11-2.52-2.32-1.52-4.37a4.19,4.19,0,0,0,.55-2.76,5.09,5.09,0,0,0-2.14-2.66c-.48-.25-2.07.51-2.39,1.18-1,2.14-2.44,4.51-2.27,6.67.33,4.17-1.12,7.66-2.68,11.19-1.68,3.79-3.65,7.44-5.32,11.22-.26.58.41,1.57.64,2.37.47-.35,1.12-.6,1.38-1.06,2.7-4.92,5.33-9.86,8-14.8,1.74-3.23,2.69-3.34,5.23-.71,2.18,2.27,3.33,4.54,1.79,7.85a113.09,113.09,0,0,0-5.33,13.53C122.08,139.32,126,144.51,133.39,144.48Z"/><path d="M98.47,77.17c0,8.1-4.86,12.86-11.56,16.19-6.41,3.18-13.33,4.28-20.4,4.92-2.47.22-2.57-1.1-2.18-2.45C67.41,85.1,70.73,74.44,76,64.52a3.56,3.56,0,0,1,2.65-1.65,64.4,64.4,0,0,1,7.94.84A13.6,13.6,0,0,1,98.47,77.17Z"/></svg>